<?xml version="1.0" encoding="UTF-8" standalone="no"?>
<!-- Created with Inkscape (http://www.inkscape.org/) -->

<svg
   xmlns:dc="http://purl.org/dc/elements/1.1/"
   xmlns:cc="http://creativecommons.org/ns#"
   xmlns:rdf="http://www.w3.org/1999/02/22-rdf-syntax-ns#"
   xmlns:svg="http://www.w3.org/2000/svg"
   xmlns="http://www.w3.org/2000/svg"
   version="1.2"
   width="750"
   height="600"
   viewBox="0 0 750 600"
   id="Layer_1"
   xml:space="preserve"
   style="overflow:visible"><metadata
     id="metadata24"><rdf:RDF><cc:Work
         rdf:about=""><dc:format>image/svg+xml</dc:format><dc:type
           rdf:resource="http://purl.org/dc/dcmitype/StillImage" /><dc:title></dc:title></cc:Work></rdf:RDF></metadata><defs
     id="defs22" /><g
     id="g3861"><g
       id="g5"><path
         d="M 0,50 C 0,22.385742 22.385254,0 50,0 h 650 c 27.61426,0 50,22.385742 50,50 v 500 c 0,27.61523 -22.38574,50 -50,50 H 50 C 22.385254,600 0,577.61523 0,550 V 50 l 0,0 z"
         id="path7" /><path
         d="M 375,300"
         id="path9" /></g><path
       d="M 375,10.001953 C 338.67236,32.46582 295.85059,45.430664 250,45.430664 204.14941,45.430664 161.32715,32.463867 125,10 L 10,125 c 21.163086,30.08057 33.587891,66.75244 33.587891,106.32764 0,28.56006 -6.471192,55.6084 -18.027832,79.7583 C 15.584961,331.95508 10,355.32617 10,380 10,468.36719 81.633301,540 170,540 H 270.11523 C 312.4585,540 350.24854,559.49414 375,589.99805 399.75098,559.49414 437.54102,540 479.88477,540 H 580 c 88.36719,0 160,-71.63281 160,-160 0,-24.67383 -5.58496,-48.04492 -15.56055,-68.91406 -11.55664,-24.1499 -18.02734,-51.19824 -18.02734,-79.7583 0,-39.5752 12.4248,-76.24707 33.58789,-106.32764 L 625,10 c -36.32715,22.463867 -79.14941,35.430664 -125,35.430664 -45.85059,0 -88.67285,-12.964844 -125,-35.428711 z"
       id="path11"
       style="fill:#ffffff;fill-opacity:1;fill-rule:evenodd" /></g><g
     id="text1331"
     style="font-size:447.76119995px;font-style:normal;font-variant:normal;font-weight:normal;font-stretch:normal;text-align:center;line-height:125%;writing-mode:lr-tb;text-anchor:middle;font-family:Roadgeek 2005 Series D;-inkscape-font-specification:Roadgeek 2005 Series D"><path
       d="m 229.58813,362.72388 0,74.77612 -47.01492,0 0,-74.77612 -148.656721,0 0,-28.20896 L 182.57321,137.5 l 47.01492,0 0,182.2388 28.65672,0 0,42.98508 -28.65672,0 m -47.01492,-155.8209 -85.522392,112.83582 85.522392,0 0,-112.83582"
       id="path6711"
       style="font-family:Roadgeek 2005 Series D;-inkscape-font-specification:Roadgeek 2005 Series D" /><path
       d="m 536.6194,287.94776 c -2.4e-4,23.88072 -2.83606,46.71652 -8.50746,68.50746 -5.67187,21.79111 -13.73157,39.40303 -24.17911,52.83582 -16.71661,22.38807 -40.89569,33.58209 -72.53731,33.58209 -21.19415,0 -38.65682,-4.32835 -52.38806,-12.98507 -13.73142,-8.6567 -25.07469,-22.23878 -34.02985,-40.74627 -6.26871,-12.83576 -11.34333,-28.35813 -15.22389,-46.56716 -3.88062,-18.50735 -5.82092,-36.71629 -5.82089,-54.62687 -3e-5,-24.77595 2.83579,-47.761 8.50746,-68.95523 5.97011,-21.19379 14.0298,-38.95496 24.17911,-53.28358 8.95515,-11.343 19.55215,-19.7012 31.79104,-25.07463 12.53721,-5.67133 27.46257,-8.50715 44.77612,-8.50746 19.10432,3.1e-4 35.37296,4.32866 48.80597,12.98508 13.43264,8.657 24.92516,22.23907 34.47761,40.74627 6.26843,13.43307 11.1938,29.1047 14.77612,47.01492 3.58185,17.91064 5.3729,36.26883 5.37314,55.07463 m -47.46269,0 c -1.9e-4,-17.01476 -1.49273,-32.68639 -4.47761,-47.01493 -2.98526,-14.62665 -7.46287,-27.0147 -13.43284,-37.16418 -4.77629,-7.76095 -10.29867,-13.43259 -16.56716,-17.01492 -5.9703,-3.58184 -13.43298,-5.67139 -22.38806,-6.26866 -11.64192,-0.59676 -21.3434,2.08981 -29.10448,8.0597 -7.76129,5.9704 -14.1792,15.67188 -19.25373,29.10448 -3.88068,8.95544 -6.86575,19.85095 -8.95522,32.68657 -1.79113,12.53749 -2.68665,25.07479 -2.68657,37.61194 -8e-5,16.11954 1.49246,31.64191 4.47761,46.56716 2.98499,14.92547 7.4626,27.16426 13.43284,36.71642 4.77602,7.76126 10.44765,13.58214 17.01492,17.46269 6.56705,3.88064 14.62674,5.82094 24.17911,5.82089 11.04463,5e-5 20.14909,-2.98502 27.31343,-8.95522 7.46252,-5.97009 13.73117,-15.67157 18.80597,-29.10448 1.49235,-3.88051 2.98489,-8.50737 4.47761,-13.88059 1.49235,-5.67155 2.68638,-11.49244 3.58209,-17.46269 1.19384,-6.26854 2.08936,-12.53719 2.68657,-18.80597 0.59682,-6.26852 0.89533,-12.38792 0.89552,-18.35821"
       id="path6713"
       style="font-family:Roadgeek 2005 Series D;-inkscape-font-specification:Roadgeek 2005 Series D" /><path
       d="m 624.10078,437.5 0,-243.13433 -27.31343,0 0,-38.0597 3.13433,0 c 6.26862,2.8e-4 12.53727,-1.64151 18.80597,-4.92538 6.2686,-3.28329 11.49247,-7.91015 15.67164,-13.88059 l 38.0597,0 0,300 -48.35821,0"
       id="path6715"
       style="font-family:Roadgeek 2005 Series D;-inkscape-font-specification:Roadgeek 2005 Series D" /></g></svg>